<svg data-name="Layer 1" xmlns="http://www.w3.org/2000/svg" viewBox="0 0 48 48"><path fill="#03a0aa" d="M0 0h48v48H0z"/><path d="M42.87 19.15l-.38.84-.38-.85-.22 1.12H42l.12-.68.34.71.32-.72.13.69h.15l-.22-1.11zm-1.39 1.11h.15v-1h.24v-.14h-.63v.14h.24v1zm-2.64-.38a3.3 3.3 0 0 0-2.67 1.37v-3.46h-2.78v11.43h2.81V24a1.63 1.63 0 0 1 1.64-1.61c1.22 0 1.43.72 1.43 1.48v5.37h2.87v-6.3a3.15 3.15 0 0 0-3.3-3zm-10.32 2.78c0-.36.29-.56.73-.56a1.3 1.3 0 0 1 1.14.72l2.1-.93a3.2 3.2 0 0 0-3-2c-2 0-3.51 1.21-3.51 3 0 3.23 4.11 2.63 4.11 3.77 0 .43-.54.64-1 .64a1.64 1.64 0 0 1-1.28-.81l-2.13 1.08a3.49 3.49 0 0 0 3.38 1.91c1.95 0 3.68-1.06 3.68-3.05 0-3.13-4.23-2.72-4.23-3.74zm-8-2.78a4.82 4.82 0 0 0-5 4.81 4.94 4.94 0 0 0 5 4.85 4.83 4.83 0 1 0 .06-9.66zm-8.19 2.58c-.3-.12-.88-.36-1.24-.49-.6-.22-1.3-.43-1.3-1s.42-1 1.15-1a4.57 4.57 0 0 1 2.3.92l1.17-2.24a7 7 0 0 0-3.66-1.23A3.71 3.71 0 0 0 6.84 21a3.37 3.37 0 0 0 2.24 3.3c.49.23 1.34.56 1.7.69 1.12.42 1.2.64 1.2 1.12s-.82.9-1.66.9a4.41 4.41 0 0 1-2.69-1.11c-.25.43-1.19 2.31-1.19 2.31a7 7 0 0 0 3.94 1.42c2.3 0 4.57-1.28 4.57-3.73 0-1.72-.88-2.76-2.6-3.45zm33.26 8.9l-41.47 3-1.33-18.72 41.47-3z" fill="#fff"/></svg>